# xmcd CD database file
#
# Track frame offsets:
#	150
#	23480
#	40135
#	55452
#	76082
#	94427
#	119252
#	140012
#	165592
#	189827
#	217818
#	237223
#	259380
#
# Disc length: 3756 seconds
#
# Revision: 0
# Processed by: cddbd v1.5.1PL0 Copyright (c) Steve Scherf et al.
# Submitted via: CDex 1.51
#
DISCID=a90eaa0d
DTITLE=椎名純平 - Rhodes to Freedom
DYEAR=2004
DGENRE=R&B
TTITLE0=スポットライト
TTITLE1=勝手にしやがれ
TTITLE2=玉葱のハッピーソング duet with 椎名林檎
TTITLE3=天国への道
TTITLE4=「月夜の軽犯罪」(Live at Motion Blue yokohama 2002.10.26)
TTITLE5=Time of GOLD(Reggae Disco Rockers Golden Mix) [椎名純平 with 篠原涼子]
TTITLE6=MUSIC MAKER
TTITLE7=世界
TTITLE8=無情
TTITLE9=白昼夢
TTITLE10=浅い夢
TTITLE11=the light〜A Journey to the promised land
TTITLE12=ショウタイム
EXTD=YEAR: 2004
EXTT0=
EXTT1=
EXTT2=
EXTT3=
EXTT4=
EXTT5=
EXTT6=
EXTT7=
EXTT8=
EXTT9=
EXTT10=
EXTT11=
EXTT12=
PLAYORDER=
